<?xml version="1.0" encoding="iso-8859-1"?>
<!-- Generator: Adobe Illustrator 19.0.0, SVG Export Plug-In . SVG Version: 6.00 Build 0)  -->
<svg version="1.1" id="Layer_1" xmlns="http://www.w3.org/2000/svg" xmlns:xlink="http://www.w3.org/1999/xlink" x="0px" y="0px"
	 viewBox="0 0 512 512" style="enable-background:new 0 0 512 512;" xml:space="preserve">
<g>
	<g>
		<path d="M477.875,204.8h-8.542v-42.667c0-32.93-26.795-59.733-59.733-59.733c-16.708,0-31.812,6.912-42.667,18.014v-9.481
			c0-32.93-26.795-59.733-59.733-59.733c-16.708,0-31.812,6.912-42.667,18.014v-9.481C264.533,26.803,237.739,0,204.8,0
			s-59.733,26.803-59.733,59.733V153.6H32.631c-13.286,0-24.098,10.812-24.098,24.098v61.235h34.133c4.71,0,8.533,3.814,8.533,8.533
			S47.377,256,42.667,256H8.533v17.067H51.2c4.71,0,8.533,3.814,8.533,8.533c0,4.719-3.823,8.533-8.533,8.533H8.533V307.2h51.2
			c4.71,0,8.533,3.814,8.533,8.533s-3.823,8.533-8.533,8.533h-51.2v10.035c0,13.286,10.812,24.098,24.098,24.098h112.435v93.867
			c0,32.93,26.795,59.733,59.733,59.733s59.733-26.803,59.733-59.733v-9.481c10.854,11.102,25.958,18.014,42.667,18.014
			c32.939,0,59.733-26.803,59.733-59.733v-9.481c10.854,11.102,25.958,18.014,42.667,18.014c32.939,0,59.733-26.803,59.733-59.733
			v-51.2h8.542c14.114,0,25.591-11.486,25.591-25.591v-42.684C503.467,216.286,491.989,204.8,477.875,204.8z M247.467,110.933
			v290.133v51.2c0,23.526-19.14,42.667-42.667,42.667c-23.526,0-42.667-19.14-42.667-42.667v-102.4V162.133v-102.4
			c0-23.526,19.14-42.667,42.667-42.667c23.526,0,42.667,19.14,42.667,42.667V110.933z M452.267,213.333v76.8v59.733
			c0,23.526-19.14,42.667-42.667,42.667c-23.526,0-42.667-19.14-42.667-42.667V162.133c0-23.526,19.14-42.667,42.667-42.667
			c23.526,0,42.667,19.14,42.667,42.667V213.333z"/>
	</g>
</g>
<g>
</g>
<g>
</g>
<g>
</g>
<g>
</g>
<g>
</g>
<g>
</g>
<g>
</g>
<g>
</g>
<g>
</g>
<g>
</g>
<g>
</g>
<g>
</g>
<g>
</g>
<g>
</g>
<g>
</g>
</svg>
